<?xml version="1.0"?><svg version="1.2" baseProfile="tiny-ps" viewBox="0 0 300 300" xmlns="http://www.w3.org/2000/svg" xmlns:xlink="http://www.w3.org/1999/xlink"><title>Hodler Suite</title><g><g fill="#a1f0fe" transform="matrix(.1 0 0 -.1 0 300)"><path d="M1275 2864c-347-58-668-252-876-529-140-186-227-391-264-620l-15-90v-250l15-90c82-509 435-929 920-1093 50-17 124-38 165-47l75-16 155-6 156-6 99 16c237 38 440 124 630 266 281 211 473 532 530 886l15 90v250l-15 90c-65 400-294 744-640 962-140 89-333 160-510 188l-90 15-135-1-135-1-80-14z"/></g><g fill="#8398fa" transform="matrix(.1 0 0 -.1 0 300)"><path d="M1275 2864c-347-58-668-252-876-529-140-186-227-391-264-620l-15-90v-250l15-90c82-509 435-929 920-1093 50-17 124-38 165-47l75-16 155-6 156-6 99 16c237 38 440 124 630 266 281 211 473 532 530 886l15 90v250l-15 90c-65 400-294 744-640 962-140 89-333 160-510 188l-90 15-135-1-135-1-80-14zm915-815c6-11 10-30 8-42l-3-21-23-12-24-12-20 6-20 5-9 21-10 22 10 27 11 27h69l11-21zm-812-125c12-8 28-25 34-37l13-22 5-183 5-184 65 35 65 34 5 157 5 158 33 29 32 29h127l25-20c14-10 31-32 37-47l11-28-2-180-3-180-42-3-43-3v-19c0-10-3-25-6-34l-6-16h-476l-6 16c-3 9-6 24-6 34v19l-42 3-43 3v397l33 29 32 29h126l22-16z"/></g><g fill="#4cb2f6" transform="matrix(.1 0 0 -.1 0 300)"><path d="M1275 2864c-347-58-668-252-876-529-140-186-227-391-264-620l-15-90v-250l15-90c82-509 435-929 920-1093 50-17 124-38 165-47l75-16 155-6 156-6 99 16c237 38 440 124 630 266 281 211 473 532 530 886l15 90v250l-15 90c-65 400-294 744-640 962-140 89-333 160-510 188l-90 15-135-1-135-1-80-14zm993-782 62-34V952l-87-50c-49-27-233-134-411-236s-327-186-332-186c-12 0-422 238-437 253l-11 12 32 38 33 37 84-46c46-26 129-73 185-105 55-33 107-59 113-59 12 0 680 380 709 402l12 10v957l-11 6-10 7-18-16c-10-9-27-16-38-16h-20l-18 20-18 19 6 30 6 30 38 34 37 35 16-6c8-3 43-21 78-40zm-876-171 33-29 3-191 3-190 17 6c9 3 41 20 70 37l52 31v286l11 22c6 12 21 30 33 39l21 18h135l32-29 33-29v-397l-42-3-43-3v-19c0-10-3-25-6-34l-6-16h-476l-6 16c-3 9-6 24-6 34v19l-42 3-43 3-3 180c-1 99 0 191 3 203 3 13 18 35 32 48l26 24h137l32-29z"/></g><g fill="#3c6493" transform="matrix(.1 0 0 -.1 0 300)"><path d="M1275 2864c-347-58-668-252-876-529-140-186-227-391-264-620l-15-90v-250l15-90c82-509 435-929 920-1093 50-17 124-38 165-47l75-16 155-6 156-6 99 16c237 38 440 124 630 266 281 211 473 532 530 886l15 90v250l-15 90c-65 400-294 744-640 962-140 89-333 160-510 188l-90 15-135-1-135-1-80-14zm557-530c178-102 362-209 411-236l87-50V952l-87-50c-49-27-234-134-412-236-178-103-329-186-336-184-6 2-195 108-418 237L670 953v1094l353 203c193 112 377 218 407 236s61 33 67 33c7 1 158-83 335-185zm-697-147-350-203-3-481-2-480 12-10c28-23 697-403 708-403s680 380 708 402l12 10v957l-11 6-10 7-18-16c-10-9-27-16-38-16h-20l-17 19-18 19 4 28 3 28-290 168c-159 92-297 167-305 167s-172-91-365-202zm257-276 33-29 3-186 3-186h11c5 0 37 14 69 31l59 32v288l11 22c6 12 21 30 33 39l21 18h135l32-29 33-29 3-363 3-363-12-28c-6-16-23-38-37-48l-25-20h-118l-26 17-26 17-13 33-14 32v172l-70-38-70-38v-106l-15-29c-8-16-25-36-37-44l-22-16h-117l-26 17-26 17-13 33-14 32v702l11 22c6 12 21 30 33 39l21 18h135l32-29z"/></g><g fill="#152135" transform="matrix(.1 0 0 -.1 0 300)"><path d="M1275 2864c-347-58-668-252-876-529-140-186-227-391-264-620l-15-90v-250l15-90c82-509 435-929 920-1093 50-17 124-38 165-47l75-16 155-6 156-6 99 16c237 38 440 124 630 266 281 211 473 532 530 886l15 90v250l-15 90c-65 400-294 744-640 962-140 89-333 160-510 188l-90 15-135-1-135-1-80-14zm644-574 410-235 1-551V952l-12-9c-7-6-194-115-416-242l-402-231-413 238-412 238-3 552-2 553 37 22c190 113 790 455 795 454 4-1 192-108 417-237zm-776-103-352-202v-970l355-203 354-204 355 204 354 203 1 489v489l-18-16-19-17h-61l-12 15c-6 8-12 29-13 47l-2 33-290 167c-159 92-292 168-295 167-3 0-163-91-357-202zm227-252 30-15 15-30 15-29v-351h8c4 0 35 14 70 32l62 32v302l16 22c8 12 28 29 44 37l29 15h92l29-15 30-15 15-30 15-29v-726l-13-25-12-25-35-17-35-18h-77l-32 15-32 15-17 29-17 29v91c0 50-3 91-6 91s-35-16-70-36l-64-36v-113l-13-25-12-25-35-17-35-18h-77l-32 15-32 15-17 29-17 29v733l11 20c5 11 25 29 42 39l32 20h96l29-15z"/></g><g fill="#060b17" transform="matrix(.1 0 0 -.1 0 300)"><path d="M1275 2864c-347-58-668-252-876-529-140-186-227-391-264-620l-15-90v-250l15-90c82-509 435-929 920-1093 50-17 124-38 165-47l75-16 155-6 156-6 99 16c237 38 440 124 630 266 281 211 473 532 530 886l15 90v250l-15 90c-65 400-294 744-640 962-140 89-333 160-510 188l-90 15-135-1-135-1-80-14zm462-465c124-72 249-144 277-159 28-16 112-64 186-107l135-79V945l-185-106c-102-58-288-165-413-237-126-73-232-132-237-132s-111 59-237 132c-125 72-311 179-413 237L665 945v1110l165 94c91 52 275 159 410 237 135 79 251 143 258 144 8 0 115-59 239-131zm-347-75c-52-31-209-121-347-201l-253-145v-956l349-201c192-110 354-201 362-201 7 0 150 79 318 176 168 98 325 188 349 201l42 25v958h-9c-5 0-14-7-21-15l-12-15h-48l-21 21-21 21 4 30 5 29-21 11c-12 6-141 80-287 164-146 85-272 154-280 154-8-1-57-26-109-56zm449-259 331-189-2-435-3-435-329-188c-180-103-332-188-336-188s-156 85-336 188l-329 188-3 435-2 435 332 191c183 105 336 190 339 190 3-1 155-87 338-192zm-661-28-318-182 3-415 2-414 310-178c171-98 317-177 325-177s155 79 325 177l310 178 2 414 3 415-316 180c-173 99-318 181-322 182s-150-80-324-180zm218-121 34-34v-362h16c9 0 41 14 70 31l54 30v152l1 152 17 21c10 12 27 26 39 33l22 11h123l34-34 34-34v-770l-37-32-36-32-70 4-69 4-29 32-29 32v201l-70-38-70-38v-133l-37-32-36-32-70 4-69 4-29 32-29 32v761l10 19c6 11 23 26 38 34l27 15 64 1h63l34-34z"/></g></g></svg>