<svg width="822" height="152" fill="none" xmlns="http://www.w3.org/2000/svg"><path d="m228.167 102.734 2.074-9.902c.193-.922 1.073-1.59 2.097-1.59h61.928c2.462 0 4.577-1.605 5.036-3.822l4.617-22.3c.599-2.896-1.822-5.576-5.036-5.576h-59.38c-1.332 0-2.34-1.108-2.1-2.31l1.729-8.684c.185-.93 1.069-1.606 2.101-1.606h65.171c2.471 0 4.59-1.617 5.04-3.844l6.596-32.666c.584-2.889-1.836-5.554-5.041-5.554H189.475c-2.468 0-4.586 1.613-5.039 3.838l-27.038 132.848c-.589 2.891 1.832 5.561 5.039 5.561h124.088c2.472 0 4.592-1.617 5.041-3.844l6.595-32.667c.583-2.888-1.836-5.554-5.041-5.554h-62.857c-1.342 0-2.351-1.12-2.098-2.327l.002-.001ZM439.998 8.725l-13.264 65.739c-.418 2.069-3.615 2.16-4.172.12L404.494 8.438c-.571-2.091-2.621-3.558-4.972-3.558h-67.783c-2.468 0-4.586 1.613-5.039 3.838l-27.038 132.848c-.588 2.891 1.832 5.561 5.039 5.561h43.032c2.469 0 4.587-1.614 5.039-3.839l13.487-66.374c.418-2.057 3.592-2.16 4.167-.135l18.977 66.833c.588 2.07 2.627 3.515 4.961 3.515h66.465c2.471 0 4.59-1.615 5.041-3.843l26.857-132.848c.584-2.89-1.835-5.555-5.041-5.555H445.04c-2.471 0-4.591 1.616-5.04 3.844h-.002ZM661.788 61.369h-83.581c-2.372 0-4.434 1.491-4.986 3.605l-5.784 22.15c-.901 3.446 1.949 6.758 5.816 6.758h31.029c1.81 0 2.803 1.934 1.65 3.213-5.37 5.96-14.439 9.387-27.328 9.387-16.6 0-26.442-10.772-26.442-24.182 0-23.167 20.844-34.749 52.11-34.749 17.309 0 32.225 3.114 44.027 7.44 3.005 1.102 6.353-.592 6.939-3.51l6.623-32.969c.418-2.077-.726-4.158-2.799-5.082C640.983 5.374 620.365 0 594.814 0c-60.795 0-107.501 26.824-107.501 82.705 0 36.782 29.722 69.295 83.184 69.295 51.53 0 83.376-21.538 93.027-68.887l3.303-16.18c.591-2.891-1.83-5.564-5.039-5.564ZM90.512 8.079l-13.71 37.285c-.467 1.269.562 2.584 2.023 2.584h13.412c1.537 0 2.57 1.444 1.96 2.736L72.075 97.46c-.891 1.883-3.94 1.4-4.09-.648L61.561 9.263c-.181-2.466-2.417-4.383-5.114-4.383H5.127C2.1 4.88-.268 7.272.024 10.033l14.06 132.849c.254 2.408 2.463 4.245 5.102 4.245h83.574c1.988 0 3.797-1.054 4.641-2.704l67.952-132.848c1.594-3.117-.887-6.694-4.641-6.694H95.37c-2.2 0-4.155 1.287-4.858 3.198ZM802.815 4.88h-83.574c-1.988 0-3.798 1.054-4.641 2.704l-67.952 132.849c-1.594 3.116.887 6.694 4.641 6.694h75.342c2.2 0 4.155-1.287 4.858-3.198l12.381-33.669c1.12-3.045-1.351-6.2-4.858-6.2h-9.248c-1.537 0-2.571-1.444-1.96-2.736l22.122-46.776c.891-1.884 3.94-1.401 4.09.648l6.423 87.548c.181 2.467 2.417 4.383 5.114 4.383h51.32c3.027 0 5.395-2.391 5.102-5.152L807.916 9.126c-.255-2.408-2.463-4.245-5.102-4.245h.001Z" fill="#FF6000"/></svg>