<svg width="761" height="703" viewBox="0 0 761 703" fill="none" xmlns="http://www.w3.org/2000/svg">
<path d="M114.48 515.486L380.133 703L471.864 638.119L149.705 410.677L114.48 515.486ZM272.991 465.577L380.133 541.153L471.864 476.272L308.216 360.769L272.991 465.577ZM403.616 557.552L495.347 622.433L761 434.919L725.775 330.111L403.616 557.552ZM402.882 395.705L494.613 460.586L601.755 384.297L566.53 279.489C567.264 279.489 402.882 395.705 402.882 395.705ZM199.607 262.377L158.511 385.01L250.242 449.178L312.619 262.377H199.607ZM101.271 131.189L0 434.919L91.731 499.8L214.284 131.902L101.271 131.189ZM242.904 131.189L207.679 235.997H410.221L374.996 131.189H242.904ZM403.616 131.189L466.727 317.99L558.458 253.108L517.363 130.476C517.363 131.189 403.616 131.189 403.616 131.189ZM145.302 0.712982L110.077 105.521H508.556L473.332 0L145.302 0.712982ZM614.964 0H501.952L625.238 367.899L716.969 303.017L614.964 0Z" fill="white"/>
</svg>
