<?xml version="1.0" encoding="UTF-8"?>
<svg width="512" height="512" viewBox="0 0 512 512" xmlns="http://www.w3.org/2000/svg">
  <defs>
    <radialGradient id="bg" cx="50%" cy="40%" r="70%">
      <stop offset="0%" stop-color="#0b1220"/>
      <stop offset="60%" stop-color="#070b16"/>
      <stop offset="100%" stop-color="#040610"/>
    </radialGradient>

    <linearGradient id="ring" x1="0%" y1="0%" x2="100%" y2="100%">
      <stop offset="0%" stop-color="#22d3ee"/>
      <stop offset="50%" stop-color="#60a5fa"/>
      <stop offset="100%" stop-color="#a78bfa"/>
    </linearGradient>

    <linearGradient id="mark" x1="0%" y1="0%" x2="0%" y2="100%">
      <stop offset="0%" stop-color="#e0fbff"/>
      <stop offset="35%" stop-color="#8bf3ff"/>
      <stop offset="100%" stop-color="#3b82f6"/>
    </linearGradient>

    <filter id="glow" x="-40%" y="-40%" width="180%" height="180%">
      <feGaussianBlur stdDeviation="10" result="b"/>
      <feColorMatrix in="b" type="matrix"
        values="0 0 0 0 0.13
                0 0 0 0 0.83
                0 0 0 0 0.93
                0 0 0 0.75 0" result="c"/>
      <feMerge>
        <feMergeNode in="c"/>
        <feMergeNode in="SourceGraphic"/>
      </feMerge>
    </filter>

    <filter id="softshadow" x="-30%" y="-30%" width="160%" height="160%">
      <feGaussianBlur stdDeviation="6" result="blur"/>
      <feOffset dx="0" dy="10" result="off"/>
      <feColorMatrix in="off" type="matrix"
        values="0 0 0 0 0
                0 0 0 0 0
                0 0 0 0 0
                0 0 0 0.35 0" result="shadow"/>
      <feMerge>
        <feMergeNode in="shadow"/>
        <feMergeNode in="SourceGraphic"/>
      </feMerge>
    </filter>
  </defs>

  <!-- Background -->
  <circle cx="256" cy="256" r="236" fill="url(#bg)"/>

  <!-- Subtle inner vignette -->
  <circle cx="256" cy="256" r="210" fill="none" stroke="#0b1020" stroke-opacity="0.9" stroke-width="18"/>

  <!-- Hex ring -->
  <path d="M256 92
           L388 168
           L388 344
           L256 420
           L124 344
           L124 168
           Z"
        fill="none" stroke="url(#ring)" stroke-width="20" filter="url(#glow)"/>

  <!-- Inner plate -->
  <path d="M256 120
           L368 184
           L368 328
           L256 392
           L144 328
           L144 184
           Z"
        fill="#050815" fill-opacity="0.75" stroke="#1f2a44" stroke-opacity="0.6" stroke-width="6" filter="url(#softshadow)"/>

  <!-- "H" monogram (geometric, font-free) -->
  <g filter="url(#glow)">
    <rect x="198" y="180" width="46" height="152" rx="18" fill="url(#mark)"/>
    <rect x="268" y="180" width="46" height="152" rx="18" fill="url(#mark)"/>
    <!-- crossbar: a slight "market tick" angle -->
    <path d="M214 256
             C240 256, 246 256, 256 250
             C266 244, 274 238, 298 236
             L298 282
             C274 282, 266 286, 256 292
             C246 298, 240 302, 214 302
             Z"
          fill="url(#mark)"/>
  </g>

  <!-- Small sparkle dot (signals "suite / premium") -->
  <circle cx="366" cy="168" r="10" fill="#b7fffb" opacity="0.9" filter="url(#glow)"/>
</svg>
